# File created by Blade
# Date/Time:  Fri Jan 16 19:00:24 2015
# Frame Rate: 120.000 fps
#------------------------------------------------------
:FULLY-SPECIFIED
:DEGREES
3118
root 16.473120 36.009999 -21.603595 -183.181706 9.934002 -170.848075
Spine 8.440178 10.774379 8.593461
Head 11.989890 -0.908889 2.944112
LeftShoulder -13.897596 -29.788829 12.188209
LeftArm -3.024683 -7.572368 -12.795948
LeftForeArm -0.539234 -0.000000 3.210450
LeftHand -2.300582 -0.000000 4.211921
LeftHandThumb1 -26.253704 0.000000 33.147579
RightShoulder -9.633056 -2.262388 -3.825399
RightArm -10.546782 51.529094 15.377039
RightForeArm -27.957753 0.000000 28.405079
RightHand -13.298797 -0.000000 -4.850598
RightHandThumb1 -24.326973 -0.000000 -32.862282
LeftUpLeg 8.513507 14.996487 -1.006109
LeftLeg -4.670927 -0.000000 0.000000
LeftFoot -18.691948 25.647498 -9.261984
LeftToeBase 17.855679 -0.000000 -0.000000
RightUpLeg -81.371338 -18.470680 15.743951
RightLeg 112.270648 -0.000000 -0.000000
RightFoot 36.032830 -38.588060 -19.724136
RightToeBase 22.076732 -0.000000 -0.000000
3119
root 16.525216 36.008633 -21.571017 -183.403890 9.426773 -171.038508
Spine 8.667951 10.234837 8.171233
Head 11.859841 -0.872845 3.203747
LeftShoulder -13.744326 -29.821236 12.317774
LeftArm -2.682280 -7.409866 -12.884840
LeftForeArm -0.854812 0.000000 3.287541
LeftHand -2.275313 -0.000000 4.265754
LeftHandThumb1 -26.253704 0.000000 33.147579
RightShoulder -9.697943 -2.191224 -3.695417
RightArm -10.835669 51.596418 15.378510
RightForeArm -27.866357 0.000000 28.335252
RightHand -13.321455 -0.000000 -4.898541
RightHandThumb1 -24.326973 -0.000000 -32.862282
LeftUpLeg 8.611342 14.616422 -1.103692
LeftLeg -4.665121 -0.000000 0.000000
LeftFoot -18.571518 25.606422 -9.244653
LeftToeBase 17.910930 -0.000000 -0.000000
RightUpLeg -81.129551 -17.150345 15.283981
RightLeg 112.353285 -0.000000 -0.000000
RightFoot 35.814205 -38.644344 -19.586500
RightToeBase 22.654391 -0.000000 -0.000000
3120
root 16.580488 36.011608 -21.536340 -183.624289 8.930786 -171.167788
Spine 8.908110 9.708053 7.835840
Head 11.754459 -0.866663 3.434001
LeftShoulder -13.532997 -29.930437 12.402579
LeftArm -2.400320 -7.365255 -12.923046
LeftForeArm -0.970053 0.000000 3.367118
LeftHand -2.261119 0.000000 4.180844
LeftHandThumb1 -26.253704 0.000000 33.147579
RightShoulder -9.818853 -2.147132 -3.584488
RightArm -10.987694 51.721552 15.509970
RightForeArm -27.843323 -0.000000 28.288388
RightHand -13.354856 -0.000000 -4.973389
RightHandThumb1 -24.326973 -0.000000 -32.862282
LeftUpLeg 8.697406 14.230647 -1.142867
LeftLeg -4.629080 -0.000000 0.000000
LeftFoot -18.460390 25.616293 -9.218748
LeftToeBase 17.883877 -0.000000 -0.000000
RightUpLeg -80.883913 -15.865349 14.958172
RightLeg 112.455665 -0.000000 -0.000000
RightFoot 35.709242 -38.289396 -20.071730
RightToeBase 23.032520 -0.000000 -0.000000
3121
root 16.642382 36.015948 -21.499891 -183.809398 8.450801 -171.275588
Spine 9.115196 9.193078 7.481897
Head 11.645684 -0.870536 3.704045
LeftShoulder -13.392196 -29.888301 12.487192
LeftArm -1.981101 -7.394009 -12.985500
LeftForeArm -1.034007 -0.000000 3.424268
LeftHand -2.365438 -0.000000 4.227062
LeftHandThumb1 -26.253704 0.000000 33.147579
RightShoulder -9.930864 -2.123545 -3.405592
RightArm -11.089308 51.813578 15.639803
RightForeArm -27.714884 -0.000000 28.262245
RightHand -13.477025 -0.000000 -5.047133
RightHandThumb1 -24.326973 -0.000000 -32.862282
LeftUpLeg 8.737810 13.919951 -1.148091
LeftLeg -4.563220 -0.000000 0.000000
LeftFoot -18.377518 25.542840 -9.206635
LeftToeBase 17.911569 -0.000000 -0.000000
RightUpLeg -80.727404 -14.488524 14.736149
RightLeg 112.468703 -0.000000 -0.000000
RightFoot 35.440730 -38.579375 -19.808512
RightToeBase 23.025160 -0.000000 -0.000000
3122
root 16.699438 36.020050 -21.472630 -184.012032 7.956632 -171.415755
Spine 9.316564 8.651024 7.114940
Head 11.568408 -0.843186 3.934899
LeftShoulder -13.272018 -29.923389 12.601427
LeftArm -1.589265 -7.321630 -13.054391
LeftForeArm -1.105076 -0.000000 3.412107
LeftHand -2.162483 0.000000 4.255933
LeftHandThumb1 -26.253704 0.000000 33.147579
RightShoulder -10.064974 -2.067643 -3.268534
RightArm -11.193765 51.914147 15.815703
RightForeArm -27.729953 0.000000 28.297100
RightHand -13.423477 0.000000 -4.996141
RightHandThumb1 -24.326973 -0.000000 -32.862282
LeftUpLeg 8.817254 13.579225 -1.194912
LeftLeg -4.522644 -0.000000 0.000000
LeftFoot -18.267113 25.489298 -9.222158
LeftToeBase 17.928304 -0.000000 -0.000000
RightUpLeg -80.561882 -13.106941 14.455909
RightLeg 112.524674 -0.000000 -0.000000
RightFoot 35.102775 -38.650319 -19.729561
RightToeBase 23.537375 -0.000000 -0.000000
3123
root 16.762682 36.026100 -21.437559 -184.153564 7.470890 -171.506971
Spine 9.456596 8.129207 6.769622
Head 11.515944 -0.833822 4.205530
LeftShoulder -13.107472 -29.901181 12.685487
LeftArm -1.207668 -7.316571 -13.086377
LeftForeArm -1.115299 -0.000000 3.444598
LeftHand -2.177662 -0.000000 4.170622
LeftHandThumb1 -26.253704 0.000000 33.147579
RightShoulder -10.167912 -2.038790 -3.087022
RightArm -11.344222 52.075971 15.908112
RightForeArm -27.723210 0.000000 28.319373
RightHand -13.429123 -0.000000 -4.878456
RightHandThumb1 -24.326973 -0.000000 -32.862282
LeftUpLeg 8.776546 13.239775 -1.194413
LeftLeg -4.373886 -0.000000 0.000000
LeftFoot -18.224347 25.433155 -9.228943
LeftToeBase 17.876202 -0.000000 -0.000000
RightUpLeg -80.480845 -11.681422 14.286426
RightLeg 112.546862 -0.000000 -0.000000
RightFoot 34.815950 -38.662949 -19.831763
RightToeBase 24.320031 -0.000000 -0.000000
3124
root 16.827531 36.033436 -21.413342 -184.335162 7.041976 -171.564180
Spine 9.631402 7.630340 6.484436
Head 11.460230 -0.813710 4.462564
LeftShoulder -12.987355 -29.908264 12.838251
LeftArm -0.865220 -7.258473 -13.204668
LeftForeArm -1.083064 0.000000 3.469161
LeftHand -2.247514 -0.000000 4.424860
LeftHandThumb1 -26.253704 0.000000 33.147579
RightShoulder -10.278137 -2.025812 -2.915898
RightArm -11.350850 52.066318 16.094166
RightForeArm -27.664664 0.000000 28.257483
RightHand -13.439918 -0.000000 -4.941254
RightHandThumb1 -24.326973 -0.000000 -32.862282
LeftUpLeg 8.839865 13.056134 -1.137777
LeftLeg -4.304013 -0.000000 0.000000
LeftFoot -18.158748 25.326707 -9.235055
LeftToeBase 17.907456 -0.000000 -0.000000
RightUpLeg -80.375525 -10.227054 14.198817
RightLeg 112.592474 -0.000000 -0.000000
RightFoot 34.735303 -38.637998 -19.791898
RightToeBase 23.162489 -0.000000 -0.000000
3125
root 16.892165 36.041949 -21.389874 -184.536343 6.591391 -171.639329
Spine 9.840486 7.087779 6.172576
Head 11.381723 -0.739339 4.690994
LeftShoulder -12.899511 -29.827722 12.937157
LeftArm -0.447590 -7.215902 -13.250030
LeftForeArm -1.017231 -0.000000 3.436896
LeftHand -2.197991 -0.000000 4.319406
LeftHandThumb1 -26.253704 0.000000 33.147579
RightShoulder -10.326420 -1.933939 -2.785414
RightArm -11.547750 52.092543 16.202887
RightForeArm -27.662378 -0.000000 28.321956
RightHand -13.377251 -0.000000 -4.808922
RightHandThumb1 -24.326973 -0.000000 -32.862282
LeftUpLeg 8.879239 12.839335 -1.095084
LeftLeg -4.148256 -0.000000 0.000000
LeftFoot -18.133152 25.208025 -9.244094
LeftToeBase 17.991214 -0.000000 -0.000000
RightUpLeg -80.293645 -8.776846 14.108516
RightLeg 112.628398 -0.000000 -0.000000
RightFoot 34.722824 -38.609312 -19.768891
RightToeBase 22.595195 -0.000000 -0.000000
